<svg width="360" height="107" viewBox="0 0 360 107" fill="none" xmlns="http://www.w3.org/2000/svg">
<path d="M114.082 52.8671C114.082 57.506 115.85 62.1386 119.386 65.6803C126.449 72.7514 137.902 72.7514 144.969 65.6803C148.504 62.1386 150.264 57.507 150.264 52.8671H114.082Z" fill="#BFE3D3"/>
<path d="M158.764 24.8373H150.265V83.0335H158.764V24.8373Z" fill="#BFE3D3"/>
<path d="M172.834 7.21939H165.093C159.25 7.21939 154.516 11.9654 154.516 17.8167C154.516 11.9664 149.778 7.21939 143.936 7.21939H136.198H133.358V17.8167C133.358 29.5132 142.83 39.0011 154.516 39.0011C166.2 39.0011 175.671 29.5122 175.671 17.8167V7.21939H172.834Z" fill="#00C0F3"/>
<path d="M13.7037 47.8502H0V78.8417H13.7037V47.8502Z" fill="#C7C4E2"/>
<path d="M108.878 47.8502H98.1491V78.8417H108.878V47.8502Z" fill="#C7C4E2"/>
<path d="M92.9568 47.8502H86.8241V78.8417H92.9568V47.8502Z" fill="#C7C4E2"/>
<path d="M81.6451 47.8502H75.5144V78.8417H81.6451V47.8502Z" fill="#C7C4E2"/>
<path d="M70.3251 47.8502H64.1913V78.8417H70.3251V47.8502Z" fill="#C7C4E2"/>
<path d="M59.001 47.8502H52.8694V78.8417H59.001V47.8502Z" fill="#C7C4E2"/>
<path d="M47.6913 47.8502H41.5587V78.8417H47.6913V47.8502Z" fill="#C7C4E2"/>
<path d="M36.3745 47.8502H30.2418V78.8417H36.3745V47.8502Z" fill="#C7C4E2"/>
<path d="M25.0535 47.8502H18.9207V78.8417H25.0535V47.8502Z" fill="#C7C4E2"/>
<path d="M56.0741 15.2403H55.9794H55.892L24.0813 22.5802L24.1451 25.8469H55.892H55.9794H56.0741H87.6739V22.0723L56.0741 15.2403ZM55.8735 23.4754C54.4743 23.4754 53.3282 22.3319 53.3282 20.9165C53.3282 19.5124 54.4743 18.373 55.8735 18.373C57.286 18.373 58.43 19.5124 58.43 20.9165C58.4311 22.333 57.287 23.4754 55.8735 23.4754Z" fill="#A5A0CF"/>
<path d="M17.9568 47.8502H14.6985V50.8057H17.9568V47.8502Z" fill="#A5A0CF"/>
<path d="M17.9568 75.1743H14.6985V78.8417H17.9568V75.1743Z" fill="#A5A0CF"/>
<path d="M29.2747 75.1743H26.0124V78.8417H29.2747V75.1743Z" fill="#A5A0CF"/>
<path d="M29.2747 47.8502H26.0124V50.8057H29.2747V47.8502Z" fill="#A5A0CF"/>
<path d="M40.5936 47.8502H37.3313V50.8057H40.5936V47.8502Z" fill="#A5A0CF"/>
<path d="M40.5936 75.1743H37.3313V78.8417H40.5936V75.1743Z" fill="#A5A0CF"/>
<path d="M51.9115 47.8502H48.6533V50.8057H51.9115V47.8502Z" fill="#A5A0CF"/>
<path d="M51.9115 75.1743H48.6533V78.8417H51.9115V75.1743Z" fill="#A5A0CF"/>
<path d="M63.2284 47.8502H59.9681V50.8057H63.2284V47.8502Z" fill="#A5A0CF"/>
<path d="M63.2284 75.1743H59.9681V78.8417H63.2284V75.1743Z" fill="#A5A0CF"/>
<path d="M74.5483 47.8502H71.2881V50.8057H74.5483V47.8502Z" fill="#A5A0CF"/>
<path d="M74.5483 75.1743H71.2881V78.8417H74.5483V75.1743Z" fill="#A5A0CF"/>
<path d="M85.8622 47.8502H82.6008V50.8057H85.8622V47.8502Z" fill="#A5A0CF"/>
<path d="M85.8622 75.1743H82.6008V78.8417H85.8622V75.1743Z" fill="#A5A0CF"/>
<path d="M97.1831 47.8502H93.9228V50.8057H97.1831V47.8502Z" fill="#A5A0CF"/>
<path d="M97.1831 75.1743H93.9228V78.8417H97.1831V75.1743Z" fill="#A5A0CF"/>
<path d="M29.8673 36.4689H28.8899V31.2985H29.8673V36.4689ZM35.1667 36.4689H34.1883V31.2985H35.1667V36.4689ZM40.4702 36.4689H39.4938V31.2985H40.4702V36.4689ZM66.0278 44.2992H87.6749V25.8479H24.0813V44.2992H45.8611V38.9053C47.0267 34.4385 51.0967 31.1419 55.9259 31.1419C60.8004 31.1419 64.8858 34.4889 66.0278 39.0093V44.2992ZM72.2644 36.4689H71.285V31.2985H72.2644V36.4689ZM77.5597 36.4689H76.5813V31.2985H77.5597V36.4689ZM82.8652 36.4689H81.8879V31.2985H82.8652V36.4689Z" fill="#C7C4E2"/>
<path d="M108.878 41.7733H0V46.8705H108.878V41.7733Z" fill="#C7C4E2"/>
<path d="M98.1491 42.9796L55.9948 36.4689H55.8734L13.7242 42.9796V46.8643H98.1491V42.9796Z" fill="#A5A0CF"/>
<path d="M287.443 78.8417H158.764V83.0335H287.443V78.8417Z" fill="#C7C4E2"/>
<path d="M287.443 70.1832H158.764V74.3739H287.443V70.1832Z" fill="#C7C4E2"/>
<path d="M287.443 61.5287H158.764V65.7143H287.443V61.5287Z" fill="#C7C4E2"/>
<path d="M287.443 52.8671H158.764V57.0589H287.443V52.8671Z" fill="#C7C4E2"/>
<path d="M135.624 43.5936C135.624 23.5846 119.426 7.35951 99.4413 7.35951C99.4413 27.3684 115.64 43.5936 135.624 43.5936Z" fill="#008FD5"/>
<path d="M170.32 78.8417H0V105.875H170.32V78.8417Z" fill="#008FD5"/>
<path d="M150.889 93.0189H141.014V92.0371H150.889V93.0189ZM131.136 93.0189H121.257V92.0371H131.136V93.0189ZM111.382 93.0189H101.506V92.0371H111.382V93.0189ZM49.7624 93.0189H39.8848V92.0371H49.7624V93.0189ZM30.0052 93.0189H20.1307V92.0371H30.0052V93.0189Z" fill="white"/>
<path d="M165.658 92.0371H160.768V93.0189H165.658V92.0371Z" fill="white"/>
<g style="mix-blend-mode:multiply">
<path d="M261.981 98.0358H170.157V105.875H261.981V98.0358Z" fill="#008FD5"/>
<path d="M248.863 98.0358C182.352 74.6304 171.75 13.8125 171.75 13.8125C171.75 13.8125 171.641 13.8125 170.449 13.8125C170.449 21.4511 183.275 98.0358 183.275 98.0358H248.863Z" fill="#008FD5"/>
<path d="M173.81 10.3697L171.548 6.99277V0H170.337V6.99277L168.071 10.3552L169.074 11.0413L170.337 9.15921V11.9283H171.548V9.16642L172.802 11.0434L173.81 10.3697Z" fill="#008FD5"/>
</g>
<path d="M80.6143 87.66C79.8334 87.66 79.0813 87.7692 78.3571 87.9546L75.426 79.1395H70.3252V80.4539H74.4774L75.5556 83.6938C72.747 84.7889 70.1287 86.124 67.6986 87.66H60.9898V88.9745H65.7243C62.4723 91.2944 59.6307 94.0233 57.2501 97.1076C56.6173 96.7893 55.9126 96.5936 55.1585 96.5936C52.568 96.5936 50.4599 98.7023 50.4599 101.295C50.4599 103.89 52.568 106.001 55.1585 106.001C57.748 106.001 59.854 103.89 59.854 101.295C59.854 99.9323 59.2634 98.7126 58.3344 97.8545C62.7161 92.1989 68.7213 87.7826 75.9702 84.9455L77.1071 88.3625C73.7953 89.744 71.4599 93.0168 71.4599 96.8284C71.4599 101.887 75.5649 106.001 80.6122 106.001C85.6616 106.001 89.7706 101.886 89.7706 96.8284C89.7717 91.7714 85.6626 87.66 80.6143 87.66ZM58.5422 101.294C58.5422 103.163 57.0237 104.686 55.1595 104.686C53.2933 104.686 51.7747 103.163 51.7747 101.294C51.7747 99.4276 53.2933 97.907 55.1595 97.907C55.6081 97.907 56.0371 97.9997 56.4301 98.1594C55.7799 99.0639 55.1647 99.9983 54.5937 100.959L55.7243 101.631C56.284 100.685 56.8869 99.7706 57.5278 98.8816C58.1533 99.4966 58.5422 100.35 58.5422 101.294ZM80.6143 104.686C76.2902 104.686 72.7747 101.16 72.7747 96.8264C72.7747 93.5947 74.7357 90.8143 77.5247 89.6132L79.9939 97.0355L81.2398 96.6183L78.7737 89.2021C79.3643 89.06 79.9795 88.9745 80.6143 88.9745C84.9394 88.9745 88.4599 92.4976 88.4599 96.8274C88.4589 101.16 84.9394 104.686 80.6143 104.686Z" fill="white"/>
<path d="M246.636 36.2186C245.721 36.2186 244.837 36.3505 243.992 36.574L240.772 26.8904L240.768 26.8925L240.625 26.4598H234.077V27.7743H239.677L240.877 31.384C235.185 31.4798 229.079 32.4595 223.569 34.3159L221.392 27.7692H224.918V26.4547H220.572C220.527 26.4485 220.479 26.4506 220.43 26.4547H217.244V27.7692H220.008L222.333 34.765C219.45 35.8251 216.756 37.119 214.415 38.6611C212.607 37.1396 210.278 36.2196 207.737 36.2196C202.008 36.2196 197.35 40.8873 197.35 46.6253C197.35 52.3654 202.008 57.0352 207.737 57.0352C213.254 57.0352 217.769 52.7064 218.1 47.263H226.628C226.686 47.263 226.739 47.2445 226.792 47.23C226.848 47.2465 226.904 47.263 226.963 47.263C227.032 47.263 227.101 47.2527 227.171 47.23C227.178 47.228 227.182 47.2228 227.182 47.2228C227.229 47.2063 227.263 47.1796 227.3 47.1559C227.34 47.1332 227.379 47.1147 227.409 47.0848C227.409 47.0848 227.421 47.0776 227.424 47.0735L241.47 33.1734L242.739 36.985C238.935 38.5323 236.244 42.2677 236.244 46.6243C236.244 52.3644 240.905 57.0341 246.636 57.0341C252.366 57.0341 257.027 52.3644 257.027 46.6243C257.027 40.8863 252.365 36.2186 246.636 36.2186ZM240.064 32.7181L227.252 45.3943L223.999 35.6108C229.143 33.8708 234.811 32.8942 240.064 32.7181ZM226.05 45.9485H218.098C217.938 43.5173 216.948 41.3169 215.402 39.6233C217.588 38.2254 220.09 37.0376 222.759 36.0538L226.05 45.9485ZM214.312 40.3722C215.714 41.8505 216.623 43.7944 216.785 45.9475H208.901C210.172 43.8511 212.031 41.9896 214.312 40.3722ZM207.736 55.7186C202.733 55.7186 198.662 51.6392 198.662 46.6243C198.662 41.6115 202.733 37.5341 207.736 37.5341C209.83 37.5341 211.755 38.2542 213.293 39.4513C210.635 41.3921 208.497 43.6636 207.179 46.2802C207.123 46.3781 207.081 46.4852 207.081 46.6068C207.081 46.9694 207.376 47.263 207.739 47.263H216.786C216.457 51.9801 212.529 55.7186 207.736 55.7186ZM246.636 55.7186C241.63 55.7186 237.557 51.6392 237.557 46.6243C237.557 42.8477 239.87 39.6017 243.153 38.2326L246.013 46.8314L247.258 46.4152L247.253 46.3977L247.258 46.3966L244.408 37.8205C245.122 37.6402 245.866 37.5331 246.636 37.5331C251.641 37.5331 255.714 41.6115 255.714 46.6233C255.714 51.6392 251.641 55.7186 246.636 55.7186Z" fill="#3777BC"/>
<path d="M261.981 15.4185V105.857H352.301L261.981 15.4185Z" fill="#8689C3"/>
<path d="M335.685 25.9066C333.794 23.9936 331.47 22.6153 329.32 22.059C327.167 22.5885 324.823 23.937 322.907 25.8325C317.96 20.8248 310.07 21.9446 310.07 21.9446L309.979 38.7775C309.915 49.4212 318.486 58.1004 329.111 58.1591C339.748 58.2188 348.416 49.6437 348.475 38.9918L348.568 22.1682C348.569 22.1671 340.693 20.9557 335.685 25.9066Z" fill="#F99D1C"/>
<g style="mix-blend-mode:multiply">
<path d="M329.276 83.3539C329.276 66.3417 315.503 52.5539 298.519 52.5539C298.519 69.562 312.291 83.3539 329.276 83.3539Z" fill="#8689C3"/>
</g>
<path d="M329.276 83.3539C346.243 83.3539 360 69.5795 360 52.589C343.032 52.589 329.276 66.3602 329.276 83.3539Z" fill="#7CCCBF"/>
</svg>
