<svg width="354" height="83" viewBox="0 0 354 83" fill="none" xmlns="http://www.w3.org/2000/svg">
<path d="M34.4321 65.0671C24.9224 65.0671 17.2161 57.3387 17.2161 47.8072C17.2161 57.3387 9.50976 65.0643 0 65.0671C9.50976 65.0671 17.2161 72.7945 17.2161 82.3242C17.2161 72.7954 24.9233 65.0671 34.4321 65.0671Z" fill="#F99D1C"/>
<path d="M108.454 44.912C108.454 28.7504 95.3838 15.6479 79.2607 15.6479C79.2607 31.8104 92.3302 44.912 108.454 44.912Z" fill="#008FD5"/>
<path d="M108.455 44.912C124.578 44.9092 137.648 31.8095 137.648 15.6479C121.524 15.6488 108.455 28.7504 108.455 44.912Z" fill="#00C0F3"/>
<path d="M280.666 30.0553C272.513 30.0553 265.902 36.6744 265.902 44.8545H295.184C295.184 44.1842 295.239 43.5276 295.281 42.8691C294.311 35.6335 288.141 30.0553 280.666 30.0553Z" fill="#008FD5"/>
<path d="M295.183 44.8545H295.43C295.43 44.1814 295.369 43.523 295.28 42.8691C295.238 43.5276 295.183 44.1842 295.183 44.8545Z" fill="#7CCCBF"/>
<path d="M324.7 15.2671C309.061 15.2671 296.303 27.4598 295.281 42.87C295.37 43.523 295.431 44.1824 295.431 44.8554H310.006C310.006 36.6881 316.612 30.0635 324.763 30.0635C332.914 30.0635 339.52 36.6881 339.52 44.8554H354.201C354.2 28.5162 340.982 15.2671 324.7 15.2671Z" fill="#7CCCBF"/>
<path d="M66.94 0C67.1616 0.854252 67.2798 1.75131 67.2798 2.67569C67.2798 8.52886 62.5462 13.2737 56.707 13.2737C50.8678 13.2737 46.1342 8.52886 46.1342 2.67569C46.1342 1.75131 46.2523 0.855163 46.474 0H14.654C14.5986 0.884306 14.5704 1.77681 14.5704 2.67569C14.5704 26.0028 33.4355 44.9129 56.707 44.9129C79.9785 44.9129 98.8436 26.0028 98.8436 2.67569C98.8436 1.77681 98.8154 0.885217 98.76 0H66.94V0Z" fill="#8689C3"/>
</svg>
