<svg width="138" height="138" viewBox="0 0 138 138" fill="none" xmlns="http://www.w3.org/2000/svg">
<path d="M116.816 68.7486C116.816 42.4251 95.3944 21.0038 69.0709 21.0038C42.7474 21.0038 21.326 42.4251 21.326 68.7486C21.326 95.0721 42.7474 116.482 69.0709 116.482C95.3944 116.494 116.816 95.0721 116.816 68.7486Z" fill="white"/>
<path d="M43.5703 67.8779V67.6155C43.5703 67.2935 43.9758 66.8999 44.4291 66.4467C44.7034 66.1843 45.0135 65.8742 45.2998 65.5163C45.586 65.8861 45.9081 66.1962 46.1943 66.4705C46.6475 66.8999 47.0292 67.2697 47.0292 67.5917V67.8779H43.5703ZM56.6545 49.4742C56.3086 49.1283 55.7361 49.1283 55.3902 49.4742L54.1498 50.7146V42.2343H52.3607V45.407L51.1322 44.1785C50.7863 43.8326 50.2138 43.8326 49.8679 44.1785C49.522 44.5243 49.522 45.0968 49.8679 45.4427L52.3607 47.9355V57.203C47.4228 56.7498 43.5465 52.5991 43.5465 47.5539C43.5465 42.2104 47.8999 37.857 53.2433 37.857C56.738 37.857 59.9703 39.7534 61.6878 42.7949C62.5108 44.25 62.9402 45.896 62.9402 47.5539C62.9402 49.2475 62.487 50.9293 61.6282 52.4083C60.0419 55.1277 57.239 56.8929 54.1498 57.1911V53.2551L56.6545 50.7504C57.0004 50.3926 57.0004 49.8201 56.6545 49.4742ZM35.2451 46.218C35.2451 45.7886 35.7222 45.3235 36.2708 44.7867C36.6286 44.4408 37.0222 44.0592 37.3562 43.6059C37.714 44.083 38.1195 44.4886 38.4774 44.8225C39.0141 45.3473 39.4912 45.8006 39.4912 46.218C39.4912 46.3492 39.4435 46.5043 39.3481 46.6474H35.3882C35.2928 46.4923 35.2451 46.3492 35.2451 46.218ZM27.719 67.8779V67.6155C27.719 67.2935 28.1245 66.8999 28.5897 66.4467C28.864 66.1843 29.1741 65.8742 29.4603 65.5163C29.7466 65.8861 30.0686 66.1962 30.3549 66.4705C30.8081 66.8999 31.1898 67.2697 31.1898 67.5917V67.8779H27.719ZM31.154 96.1575H107C98.4835 107.906 84.6598 115.563 69.0828 115.563C53.4938 115.563 39.6701 107.906 31.154 96.1575Z" fill="#8CE6BE"/>
<path d="M90.3133 32.5375C92.7465 32.5375 94.7145 34.5055 94.7145 36.9386C94.7145 39.3599 92.7346 41.3398 90.3133 41.3398C90.0152 41.3398 89.7289 41.304 89.4426 41.2444C90.5638 40.1113 91.2079 38.5846 91.2079 36.9386C91.2079 35.3165 90.5519 33.7779 89.4307 32.6329C89.7289 32.5732 90.0152 32.5375 90.3133 32.5375Z" fill="#FFB400"/>
<path d="M94.7265 90.8022V94.3684H91.1602C92.6034 93.45 93.82 92.2335 94.7265 90.8022ZM67.902 83.7651H64.7174C64.467 80.4612 62.8091 77.5629 60.3521 75.6188L63.5724 70.7763L67.902 83.7651ZM65.0872 69.6432H78.0641L69.4168 82.632L65.0872 69.6432ZM64.7174 85.5542H69.1425C69.2379 85.5542 69.3333 85.5423 69.4287 85.5065C69.4645 85.4945 69.4764 85.4707 69.5122 85.4588C69.5599 85.4349 69.5957 85.411 69.6315 85.3872C69.715 85.3395 69.7746 85.2799 69.8342 85.1964C69.8462 85.1725 69.882 85.1606 69.8939 85.1487L79.4596 70.7763L80.5569 74.0563C76.43 75.8096 73.5317 79.8887 73.5317 84.6477C73.5317 88.7268 75.6786 92.3169 78.887 94.3565H59.3979C62.3797 92.472 64.4312 89.2636 64.7174 85.5542ZM69.0709 21.9341C43.2603 21.9341 22.2563 42.938 22.2563 68.7486C22.2563 70.2396 22.3279 71.7066 22.471 73.1617H25.9299V67.6156C25.9299 66.5302 26.6814 65.8026 27.3374 65.1705C28.0053 64.5264 28.5778 63.9658 28.5778 63.107C28.5778 62.618 28.9833 62.2125 29.4723 62.2125C29.9614 62.2125 30.3669 62.618 30.3669 63.107C30.3669 63.8227 30.7247 64.3236 31.2137 64.8126C31.2376 64.6576 31.2853 64.5025 31.3807 64.3833L32.3587 63.1548V58.1692C32.3587 58.0976 32.3707 58.026 32.3826 57.9664L34.6488 48.4007C34.5057 48.353 34.3864 48.2814 34.279 48.1741C33.7304 47.5658 33.4441 46.9217 33.4441 46.2419C33.4441 45.0611 34.2671 44.25 35.0066 43.5344C35.758 42.8068 36.4617 42.115 36.4617 41.0535C36.4617 40.5645 36.8673 40.159 37.3563 40.159C37.8453 40.159 38.2508 40.5645 38.2508 41.0535C38.2508 42.1508 38.9665 42.8307 39.7179 43.5582C40.4454 44.262 41.2804 45.0611 41.2804 46.2419C41.2804 46.9337 40.9941 47.5897 40.4335 48.186C40.3381 48.2814 40.2308 48.353 40.1115 48.4007L42.4015 57.9664C42.4134 58.038 42.4254 58.1095 42.4254 58.1692V63.1667L43.3795 64.4071C43.475 64.5264 43.5227 64.6814 43.5465 64.8365C44.0475 64.3356 44.4172 63.8346 44.4172 63.1309C44.4172 62.6419 44.8228 62.2364 45.3118 62.2364C45.8008 62.2364 46.2063 62.6419 46.2063 63.1309C46.2063 64.0374 46.7788 64.586 47.4348 65.2182C48.0789 65.8384 48.8184 66.554 48.8184 67.6275V74.0921C49.9276 73.6269 51.1204 73.3407 52.3608 73.2452V58.9921C46.4449 58.5389 41.7574 53.5772 41.7574 47.5539C41.7574 41.2205 46.91 36.0679 53.2434 36.0679C57.1794 36.0679 60.8172 38.1075 62.9164 41.4113C63.2504 41.3756 63.5724 41.3636 63.8706 41.3636C68.9158 41.3636 73.2097 44.6675 74.7244 49.2237C75.8456 47.6851 77.6466 46.6593 79.6862 46.6593C83.1093 46.6593 85.8884 49.4384 85.8884 52.8496V53.7441H62.8926C60.9484 56.7498 57.7042 58.694 54.1618 58.9683V73.1975V73.2095C55.8555 73.3407 57.4537 73.8297 58.8731 74.6169L62.8687 68.6175L61.4494 64.3356H58.5749C58.0859 64.3356 57.6804 63.93 57.6804 63.441C57.6804 62.952 58.0859 62.5465 58.5749 62.5465H65.6358C66.1249 62.5465 66.5304 62.952 66.5304 63.441C66.5304 63.93 66.1249 64.3356 65.6358 64.3356H63.3458L64.5147 67.8422H78.4815L77.1099 63.7153C77.0145 63.441 77.0622 63.1428 77.2292 62.9043C77.3961 62.6657 77.6705 62.5345 77.9567 62.5345H85.0296C85.5186 62.5345 85.9241 62.9401 85.9241 63.4291C85.9241 63.9181 85.5186 64.3236 85.0296 64.3236H79.1972L82.2505 73.4838C83.1451 73.2572 84.0635 73.126 85.0177 73.126C88.0949 73.126 90.9813 74.3187 93.1521 76.5014C93.7604 77.1097 94.2732 77.7657 94.7265 78.4694V68.7248C94.7265 68.2358 95.132 67.8302 95.621 67.8302H96.933V58.1214C96.933 58.038 96.9449 57.9545 96.9688 57.871L100.046 47.2676C100.153 46.886 100.511 46.6236 100.905 46.6236C101.298 46.6236 101.656 46.886 101.764 47.2676L104.841 57.871C104.865 57.9545 104.877 58.038 104.877 58.1214V67.8302H106.212C106.701 67.8302 107.107 68.2358 107.107 68.7248V73.1379H115.683C115.826 71.6828 115.897 70.2157 115.897 68.7248C115.897 42.938 94.8934 21.9341 69.0709 21.9341ZM90.3134 43.1289C89.228 43.1289 88.1903 42.8426 87.2123 42.2701L85.8884 41.4948L87.2123 40.7196C88.5958 39.9204 89.4188 38.5011 89.4188 36.9386C89.4188 35.3642 88.5958 33.9568 87.2123 33.1577L85.8764 32.3824L87.2123 31.6071C88.1903 31.0346 89.228 30.7484 90.3014 30.7484C93.7126 30.7484 96.4917 33.5274 96.4917 36.9386C96.5036 40.3498 93.7246 43.1289 90.3134 43.1289Z" fill="#2387F0"/>
<path d="M16.5193 33.265C19.3222 35.5789 22.8169 35.0779 25.0234 32.4062C27.23 29.7226 26.9437 26.1086 24.2481 23.8782C21.4452 21.5643 17.9386 22.0772 15.7321 24.7489C13.454 27.5161 13.9072 31.1181 16.5193 33.265ZM17.2111 25.9655C18.6065 24.2718 21.0039 24.0094 22.8646 25.5481C24.6417 27.0151 25.1069 29.2813 23.5444 31.1777C22.1489 32.8595 19.7039 33.0622 17.8909 31.5833C16.0303 30.0566 15.7917 27.695 17.2111 25.9655ZM116.458 101.155L123.519 111.711L124.664 109.981L122.839 107.321L125.582 103.159L128.743 103.779L129.948 101.954L117.46 99.6403L116.458 101.155ZM123.543 102.765L121.658 105.616L119.13 101.895L123.543 102.765ZM44.6676 16.7577L40.4573 5.86805L42.3657 5.12856L44.3575 10.2931L46.6476 3.47067L48.9495 2.57613L46.4329 9.37467L53.4461 13.3465L51.0249 14.2887L44.4052 10.4004L46.576 16.0182L44.6676 16.7577ZM28.8044 19.8945C26.8721 17.1632 27.063 13.752 30.1999 11.5335C31.4403 10.6628 32.7523 10.3169 33.778 10.4481L33.9092 12.2134C33.0624 12.2372 32.2633 12.4161 31.3091 13.096C29.5439 14.3483 29.1145 16.5668 30.5696 18.6422C31.977 20.634 34.2909 21.0395 36.2351 19.6679C37.0342 19.1073 37.6544 18.2724 37.9526 17.3063L39.4793 18.1054C39.3362 19.167 38.4297 20.4551 37.1892 21.3377C34.279 23.4011 30.9036 22.8644 28.8044 19.8945ZM13.8237 52.4321L3.04146 47.9833L3.82866 46.0749L10.3887 44.4647L6.79855 38.8827L7.53804 37.0937L18.3203 41.5425L17.545 43.427L9.74458 40.2186L13.1319 45.5978L13.0127 45.8721L6.85818 47.3511L14.6109 50.5476L13.8237 52.4321ZM6.34531 59.1114C7.41877 59.2426 8.19404 60.2326 8.06284 61.2822C7.93164 62.3437 6.9536 63.1309 5.86822 62.9997C4.83055 62.8685 4.04335 61.8666 4.17455 60.817C4.30575 59.7436 5.30764 58.9802 6.34531 59.1114ZM124.855 83.2284L135.876 87.0451L135.208 88.9654L126 85.7808L124.89 88.9892L126.894 89.9315C133.085 92.794 133.621 94.5831 132.56 96.6465L130.651 95.9309C131.057 95.1199 131.081 93.8794 124.604 91.0884L122.457 90.17L124.855 83.2284ZM62.6659 11.9987C66.1129 11.6051 68.4268 8.81409 68.0332 5.34325C67.6276 1.72929 64.7532 -0.346057 61.3181 0.047543C57.7519 0.45307 55.5811 3.33947 55.9628 6.70296C56.3802 10.3169 59.2308 12.3923 62.6659 11.9987ZM61.5328 1.95591C63.7155 1.70543 65.6119 3.18442 65.8863 5.59373C66.1487 7.88376 64.8844 9.82791 62.4512 10.1022C60.2804 10.3527 58.3721 8.79024 58.1216 6.46442C57.8473 4.06703 59.3143 2.20638 61.5328 1.95591ZM133.955 60.8528C134.086 61.9143 133.299 62.9043 132.262 63.0236C131.188 63.1548 130.198 62.3795 130.067 61.3299C129.936 60.2683 130.711 59.2665 131.784 59.1353C132.822 59.0041 133.824 59.7913 133.955 60.8528ZM120.108 42.2105L130.89 37.7497L131.677 39.6461L124.008 42.8187L134.015 45.2996L134.707 46.9575L123.924 51.4183L123.137 49.5219L130.783 46.3611L120.799 43.8803L120.108 42.2105ZM110.745 29.0905L119.869 21.8029L121.145 23.4011L114.657 28.5776L124.962 28.1721L126.083 29.5795L116.959 36.867L115.683 35.2688L122.159 30.0923L111.866 30.4859L110.745 29.0905ZM133.275 42.3655C132.512 40.5168 132.941 39.0259 134.206 38.3818L134.933 40.159C134.385 40.5287 134.265 41.0654 134.587 41.8407C134.874 42.5325 135.303 42.9142 135.995 42.6995L136.722 44.4647C135.375 44.9537 133.979 44.0592 133.275 42.3655ZM101.382 21.3974L99.7239 20.1808L106.618 10.7582L108.276 11.9748L105.008 16.4475L111.997 14.6942L113.989 16.1494L106.904 17.6999L107.334 25.7508L105.234 24.2122L104.936 16.531L101.382 21.3974ZM134.325 70.3469C132.047 70.1441 130.449 71.3846 130.174 74.3902C130.15 74.7003 130.115 75.2013 130.138 75.7261L126.155 75.3683L125.976 77.4079L137.593 78.4574C137.653 77.7776 137.796 76.6326 137.891 75.5233C138.166 72.4342 136.782 70.5735 134.325 70.3469ZM136.007 75.1178C135.971 75.5114 135.911 75.8811 135.852 76.239L132.047 75.8931C132.035 75.4279 132.047 75.0224 132.071 74.7242C132.202 73.2929 132.87 72.3865 134.182 72.5057C135.613 72.6369 136.138 73.6269 136.007 75.1178ZM82.1074 9.27925C82.334 7.74064 81.5706 6.73874 80.4853 6.28551V6.24973C81.5468 5.93962 82.334 5.1882 82.5248 3.8762C82.7634 2.27794 81.9165 0.870525 79.1613 0.45307C78.0044 0.286088 76.4658 0.107179 75.8217 0.0356157L74.1042 11.5335C74.7721 11.6886 76.2511 11.939 77.3126 12.0941C79.7458 12.4758 81.7615 11.6528 82.1074 9.27925ZM77.5631 2.21831C77.9328 2.24216 78.3741 2.28987 78.8393 2.36143C79.9247 2.52842 80.5807 3.12478 80.4375 4.06703C80.2825 5.12856 79.4356 5.48638 78.4934 5.34325L77.1337 5.12856L77.5631 2.21831ZM76.8713 6.8938L78.3026 7.10849C79.5788 7.29933 80.2467 7.90762 80.0917 8.87373C79.9247 9.95911 79.1017 10.4243 77.73 10.2215C77.1575 10.138 76.6804 10.0187 76.4061 9.93525L76.8713 6.8938ZM88.5242 8.49205C89.7885 5.39096 92.7584 3.72114 96.3247 5.17627C97.7321 5.74878 98.7221 6.67911 99.1634 7.60944L97.744 8.67096C97.2788 7.97918 96.6825 7.39474 95.5971 6.95343C93.5933 6.13045 91.4822 6.96536 90.528 9.31503C89.6096 11.5693 90.5042 13.7401 92.7107 14.6346C93.6172 15.0043 94.6548 15.0878 95.621 14.8135L95.7641 16.531C94.786 16.9843 93.2117 16.9127 91.8042 16.3402C88.5123 14.9924 87.1526 11.8555 88.5242 8.49205ZM88.393 125.069L84.7194 126.011L87.1287 135.458L85.1369 135.959L82.7276 126.512L79.0659 127.455L78.5888 125.594L87.904 123.221L88.393 125.069ZM44.2383 121.742L44.775 120.644L42.9382 119.738L42.4015 120.835C39.5031 119.475 36.8314 119.952 35.5433 122.576C34.2432 125.224 35.4717 127.646 38.3581 129.065L37.6783 130.46L39.5151 131.367L40.1949 129.971C43.0575 131.355 45.765 130.854 47.0531 128.23C48.3055 125.654 47.065 123.185 44.2383 121.742ZM39.1811 127.371C37.3443 126.453 36.7122 125.105 37.4874 123.531C38.1911 122.111 39.6463 121.598 41.5666 122.529L39.1811 127.371ZM45.097 127.264C44.3098 128.862 42.9263 129.184 41.0179 128.266L43.4034 123.423C45.3475 124.425 45.7888 125.856 45.097 127.264ZM54.2691 124.342L60.8768 125.725L60.4832 127.598L55.8793 126.632L55.2829 129.47L59.3978 130.329L59.0042 132.202L54.8893 131.343L54.2691 134.301L59.04 135.303L58.6464 137.175L51.8717 135.756L54.2691 124.342ZM101.799 64.7291H100.01V62.8685H101.799V64.7291ZM74.6886 135.088L75.4996 136.603C74.784 137.402 73.317 137.963 71.7903 137.998C68.224 138.07 65.7193 135.744 65.6477 132.106C65.5762 128.755 67.6396 126.047 71.4921 125.964C73.0068 125.928 74.2831 126.393 75.0703 127.073L74.1876 128.612C73.4839 128.158 72.7087 127.86 71.5398 127.884C69.369 127.932 67.7708 129.53 67.8304 132.059C67.8781 134.492 69.5718 136.126 71.9453 136.078C72.9234 136.054 73.9014 135.72 74.6886 135.088ZM103.588 74.9866H101.799V73.114H103.588V74.9866ZM66.4588 100.046C64.5385 100.046 63.4412 101.692 63.4412 104.578C63.4412 107.465 64.5504 109.099 66.4946 109.099C68.4268 109.099 69.4764 107.488 69.4764 104.578C69.4764 101.692 68.3791 100.046 66.4588 100.046ZM66.4826 107.488C65.6596 107.488 65.2422 106.51 65.2422 104.566C65.2422 101.99 65.8982 101.656 66.4588 101.656C67.0671 101.656 67.6754 102.002 67.6754 104.566C67.6873 106.642 67.3414 107.488 66.4826 107.488ZM78.1714 105.807C78.6842 105.807 79.1375 105.664 79.4953 105.401C79.0421 106.63 78.0521 107.429 76.5731 107.715L76.3942 107.751L76.9667 109.134L77.0741 109.122C79.8173 108.789 81.5945 106.546 81.5945 103.409C81.5945 101.334 80.3421 99.9981 78.4099 99.9981C76.9428 99.9981 75.4281 101.119 75.4281 102.992C75.44 104.578 76.6447 105.807 78.1714 105.807ZM78.4218 101.716C79.4356 101.716 79.8054 102.61 79.8173 103.385C79.6861 103.648 79.3164 104.197 78.5173 104.197C77.6704 104.197 77.2291 103.552 77.2291 102.92C77.2291 102.336 77.6823 101.716 78.4218 101.716ZM71.1343 103.278L70.2278 101.859L72.5655 100.105H73.7821V108.991H72.0765V102.574L71.1343 103.278ZM4.1984 79.686C5.73702 79.519 6.52422 78.529 6.67927 77.3601H6.71506C7.28756 78.3024 8.20596 78.8749 9.52989 78.7318C11.1401 78.5648 12.2851 77.384 11.9869 74.6169C11.8676 73.4599 11.6529 71.9213 11.5456 71.2772L0 72.5177C0.0238545 73.1975 0.155055 74.7004 0.2624 75.7619C0.5248 78.207 1.81295 79.9484 4.1984 79.686ZM9.89964 73.5196C9.9712 73.8774 10.0308 74.3306 10.0905 74.7838C10.2097 75.8811 9.79229 76.6564 8.85004 76.7638C7.78851 76.8711 7.22793 76.1436 7.12058 75.2013L6.96553 73.8297L9.89964 73.5196ZM2.18269 75.7022C2.12305 75.1178 2.12305 74.6407 2.12305 74.3545L5.18836 74.0205L5.34342 75.4637C5.47462 76.7399 5.05716 77.539 4.07913 77.6464C2.99375 77.7537 2.32582 77.0739 2.18269 75.7022ZM117.686 68.7486C117.686 41.9481 95.8834 20.145 69.0828 20.145C42.2822 20.145 20.4791 41.9481 20.4791 68.7486C20.4791 95.5492 42.2822 117.352 69.0828 117.352C95.8714 117.352 117.686 95.5492 117.686 68.7486ZM108.24 94.3684H107.107V85.5542H112.76C111.556 88.6672 110.041 91.6132 108.24 94.3684ZM113.405 83.7651H107.107V74.9508H115.468C115.062 77.9923 114.371 80.9383 113.405 83.7651ZM22.2563 68.7486C22.2563 42.938 43.2602 21.9341 69.0708 21.9341C94.8815 21.9341 115.885 42.938 115.885 68.7486C115.885 70.2395 115.814 71.7066 115.671 73.1617H107.107V68.7486C107.107 68.2596 106.701 67.8541 106.212 67.8541H104.877V58.1453C104.877 58.0618 104.865 57.9783 104.841 57.8948L101.764 47.2915C101.656 46.9098 101.298 46.6474 100.905 46.6474C100.511 46.6474 100.153 46.9098 100.046 47.2915L96.9687 57.8948C96.9449 57.9783 96.933 58.0618 96.933 58.1453V67.8541H95.621C95.1319 67.8541 94.7264 68.2596 94.7264 68.7486V78.4932C94.2732 77.7895 93.7603 77.1335 93.152 76.5252C90.9812 74.3545 88.0948 73.1498 85.0176 73.1498C84.0634 73.1498 83.1331 73.281 82.2505 73.5076L79.1971 64.3475H85.0295C85.5186 64.3475 85.9241 63.942 85.9241 63.4529C85.9241 62.9639 85.5186 62.5584 85.0295 62.5584H77.9567C77.6704 62.5584 77.3961 62.7015 77.2291 62.9281C77.0621 63.1547 77.0144 63.4649 77.1098 63.7392L78.4815 67.866H64.4908L63.3219 64.3594H65.6119C66.101 64.3594 66.5065 63.9539 66.5065 63.4649C66.5065 62.9758 66.101 62.5703 65.6119 62.5703H58.551C58.062 62.5703 57.6564 62.9758 57.6564 63.4649C57.6564 63.9539 58.062 64.3594 58.551 64.3594H61.4255L62.8448 68.6413L58.8492 74.6407C57.4418 73.8535 55.8316 73.3645 54.1379 73.2333V73.2214V58.9683C57.6803 58.682 60.9245 56.7498 62.8687 53.7441H85.8764V52.8496C85.8764 49.4384 83.0973 46.6593 79.6742 46.6593C77.6346 46.6593 75.8336 47.6731 74.7124 49.2237C73.1977 44.6555 68.9039 41.3636 63.8586 41.3636C63.5604 41.3636 63.2384 41.3875 62.9044 41.4113C60.8052 38.1075 57.1674 36.0679 53.2314 36.0679C46.898 36.0679 41.7455 41.2205 41.7455 47.5539C41.7455 53.5891 46.4329 58.5389 52.3488 58.9921V73.2094C51.0964 73.3049 49.9037 73.5911 48.8064 74.0563V67.5917C48.8064 66.5063 48.0669 65.8026 47.4228 65.1824C46.7668 64.5502 46.1943 64.0016 46.1943 63.0951C46.1943 62.6061 45.7888 62.2006 45.2998 62.2006C44.8108 62.2006 44.4052 62.6061 44.4052 63.0951C44.4052 63.7988 44.0236 64.2998 43.5346 64.8007C43.5107 64.6457 43.463 64.5025 43.3676 64.3713L42.4134 63.1309V58.1334C42.4134 58.0618 42.4015 57.9902 42.3895 57.9306L40.0995 48.3649C40.2188 48.3172 40.3261 48.2457 40.4215 48.1502C40.9821 47.5539 41.2684 46.8979 41.2684 46.2061C41.2684 45.0253 40.4454 44.2262 39.7059 43.5225C38.9545 42.7949 38.2388 42.115 38.2388 41.0177C38.2388 40.5287 37.8333 40.1232 37.3443 40.1232C36.8553 40.1232 36.4497 40.5287 36.4497 41.0177C36.4497 42.0673 35.746 42.7591 34.9946 43.4986C34.2671 44.2142 33.4322 45.0253 33.4322 46.2061C33.4322 46.8859 33.7065 47.53 34.2671 48.1383C34.3625 48.2457 34.4937 48.3172 34.6368 48.3649L32.3706 57.9306C32.3587 58.0022 32.3468 58.0618 32.3468 58.1334V63.119L31.3687 64.3475C31.2733 64.4668 31.2137 64.6218 31.2017 64.7769C30.7247 64.2878 30.3549 63.7869 30.3549 63.0713C30.3549 62.5822 29.9494 62.1767 29.4604 62.1767C28.9713 62.1767 28.5658 62.5822 28.5658 63.0713C28.5658 63.942 27.9933 64.4906 27.3254 65.1347C26.6694 65.7787 25.918 66.5063 25.918 67.5798V73.126H22.4591C22.3398 71.7066 22.2563 70.2395 22.2563 68.7486ZM100.022 84.6596V94.3684H96.5155V69.6432H105.318V94.3565H101.811V84.6477H100.022V84.6596ZM103.087 59.0398V67.8541H98.722V59.0398H103.087ZM99.0202 57.2507L100.905 50.7504L102.789 57.2507H99.0202ZM85.113 94.3684H84.9222C79.6146 94.3207 75.3088 89.9792 75.3088 84.6596C75.3088 80.6998 77.7062 77.2886 81.1174 75.7857L84.1708 84.9459C84.302 85.3156 84.6479 85.5542 85.0176 85.5542C85.113 85.5542 85.2084 85.5423 85.3039 85.5065C85.769 85.3514 86.0314 84.8385 85.8644 84.3734L82.8111 75.2132C83.5267 75.0462 84.2543 74.9508 85.0176 74.9508C87.6058 74.9508 90.0509 75.9647 91.8877 77.8015C93.6887 79.6025 94.6906 81.9998 94.7264 84.5523V84.7908C94.6668 90.0388 90.3849 94.3088 85.113 94.3684ZM94.7264 90.8022V94.3684H91.1602C92.6034 93.45 93.8199 92.2334 94.7264 90.8022ZM43.5703 84.9817V84.3376C43.7373 79.1373 48.0192 74.9508 53.2672 74.9508C54.937 74.9508 56.4995 75.3683 57.8831 76.1197L52.5277 84.1706C52.3488 84.4449 52.325 84.8027 52.48 85.089C52.6351 85.3753 52.9332 85.5661 53.2672 85.5661H62.9283C62.4751 90.4682 58.3602 94.3326 53.3507 94.3804H53.1718C47.9715 94.3088 43.7373 90.1581 43.5703 84.9817ZM47.1247 94.3684H43.5703V90.826C44.4768 92.2454 45.6934 93.45 47.1247 94.3684ZM47.0292 69.667V73.1617H43.5584V69.667H47.0292ZM43.5703 67.878V67.6155C43.5703 67.2935 43.9759 66.8999 44.4291 66.4467C44.7034 66.1843 45.0135 65.8742 45.2998 65.5163C45.586 65.8861 45.9081 66.1962 46.1943 66.4705C46.6476 66.8999 47.0292 67.2697 47.0292 67.5917V67.878H43.5703ZM47.1247 74.9508C45.6934 75.8573 44.4768 77.0739 43.5703 78.5052V74.9508H47.1247ZM56.6546 49.4742C56.3087 49.1283 55.7362 49.1283 55.3903 49.4742L54.1498 50.7146V42.2343H52.3607V45.407L51.1322 44.1785C50.7863 43.8326 50.2138 43.8326 49.8679 44.1785C49.522 44.5243 49.522 45.0969 49.8679 45.4427L52.3607 47.9355V57.203C47.4228 56.7498 43.5465 52.5991 43.5465 47.5539C43.5465 42.2105 47.8999 37.857 53.2434 37.857C56.738 37.857 59.9703 39.7534 61.6879 42.7949C62.5108 44.25 62.9402 45.896 62.9402 47.5539C62.9402 49.2475 62.487 50.9293 61.6282 52.4083C60.0419 55.1277 57.239 56.8929 54.1498 57.1911V53.2551L56.6546 50.7504C57.0004 50.3926 57.0004 49.8201 56.6546 49.4742ZM67.902 83.7651H64.7174C64.4669 80.4612 62.809 77.5629 60.352 75.6188L63.5724 70.7763L67.902 83.7651ZM65.0871 69.6432H78.064L69.4167 82.632L65.0871 69.6432ZM62.9283 83.7651H54.937L59.362 77.1097C61.342 78.7198 62.6778 81.0815 62.9283 83.7651ZM64.7174 85.5542H69.1424C69.2378 85.5542 69.3332 85.5423 69.4287 85.5065C69.4644 85.4945 69.4764 85.4707 69.5122 85.4588C69.5599 85.4349 69.5956 85.411 69.6314 85.3872C69.7149 85.3395 69.7746 85.2798 69.8342 85.1964C69.8461 85.1725 69.8819 85.1606 69.8938 85.1487L79.4595 70.7763L80.5568 74.0563C76.43 75.8096 73.5316 79.8887 73.5316 84.6477C73.5316 88.7268 75.6786 92.3169 78.887 94.3565H59.3978C62.3796 92.472 64.4311 89.2636 64.7174 85.5542ZM64.6578 46.218C64.6458 46.0868 64.622 45.9556 64.5981 45.8244C64.5504 45.5024 64.4908 45.1923 64.4073 44.8702C64.3715 44.739 64.3476 44.5959 64.2999 44.4647C64.2045 44.1188 64.0852 43.7729 63.954 43.427C63.9183 43.3555 63.9063 43.272 63.8706 43.1885C63.8586 43.1646 63.8586 43.1527 63.8467 43.1289C63.8586 43.1289 63.8586 43.1289 63.8706 43.1289C68.9039 43.1289 73.0426 47.0052 73.4959 51.9431H63.8467V51.9312V51.9193C64.0137 51.5018 64.1568 51.0724 64.2761 50.643C64.3119 50.5118 64.3476 50.3806 64.3715 50.2494C64.455 49.9274 64.5146 49.6054 64.5743 49.2714C64.5981 49.1402 64.622 49.009 64.6339 48.8778C64.6935 48.4246 64.7293 47.9833 64.7293 47.53C64.7412 47.1006 64.7055 46.6593 64.6578 46.218ZM75.4281 51.955C75.8336 49.9513 77.5988 48.4484 79.698 48.4484C81.8211 48.4484 83.5983 49.9513 84.0157 51.955H75.4281ZM36.4855 84.6596V94.3684H32.9789V74.9508H41.7812V94.3684H38.2746V84.6596H36.4855ZM32.9789 73.1617V65.242L33.6945 64.3475H41.1014L41.7812 65.2301V73.1617H32.9789ZM36.4736 48.4365H38.2865L40.3977 57.2507H34.3983L36.4736 48.4365ZM35.2451 46.218C35.2451 45.7886 35.7222 45.3235 36.2708 44.7867C36.6287 44.4409 37.0223 44.0592 37.3562 43.6059C37.714 44.083 38.1196 44.4886 38.4774 44.8225C39.0141 45.3473 39.4912 45.8006 39.4912 46.218C39.4912 46.3492 39.4435 46.5043 39.3481 46.6474H35.3882C35.2928 46.4923 35.2451 46.3492 35.2451 46.218ZM40.6362 59.0398V62.5584H34.1597V59.0398H40.6362ZM27.719 67.878V67.6155C27.719 67.2935 28.1245 66.8999 28.5897 66.4467C28.864 66.1843 29.1741 65.8742 29.4604 65.5163C29.7466 65.8861 30.0687 66.1962 30.3549 66.4705C30.8082 66.8999 31.1898 67.2697 31.1898 67.5917V67.878H27.719ZM31.1898 69.667V73.1617H27.719V69.667H31.1898ZM22.6857 74.9508H31.1898V83.7651H24.7372C23.783 80.9383 23.0912 77.9923 22.6857 74.9508ZM25.3932 85.5542H31.1898V94.3684H29.9136C28.1126 91.6132 26.5978 88.6672 25.3932 85.5542ZM31.154 96.1575H107C98.4835 107.906 84.6598 115.563 69.0828 115.563C53.4938 115.563 39.6701 107.906 31.154 96.1575ZM113.333 113.571L113.309 113.547C113.727 112.522 113.631 111.448 112.725 110.47C111.627 109.289 109.993 109.075 107.954 110.959C107.095 111.758 105.998 112.844 105.544 113.309L113.452 121.825C113.989 121.396 115.11 120.394 115.885 119.678C117.698 117.996 118.319 115.921 116.685 114.156C115.635 113.035 114.371 112.999 113.333 113.571ZM110.339 115.468L108.335 113.309C108.586 113.035 108.896 112.713 109.242 112.402C110.053 111.651 110.924 111.52 111.58 112.224C112.307 113.011 112.057 113.893 111.365 114.537L110.339 115.468ZM114.693 118.175C114.263 118.569 113.882 118.867 113.643 119.034L111.544 116.768L112.605 115.778C113.548 114.907 114.43 114.764 115.11 115.48C115.862 116.291 115.706 117.233 114.693 118.175ZM21.9343 111.401C19.4892 114.084 19.8112 117.603 22.3756 119.941C24.9399 122.278 28.5777 122.171 30.9274 119.583C33.3725 116.899 33.0386 113.369 30.4742 111.031C27.8263 108.622 24.2124 108.896 21.9343 111.401ZM29.3292 118.128C27.7786 119.833 25.4886 120.179 23.6756 118.521C22.0535 117.054 21.982 114.585 23.5444 112.868C25.1665 111.079 27.5401 110.959 29.186 112.462C30.8201 113.929 30.9513 116.338 29.3292 118.128ZM22.8407 103.147L12.9649 109.349L11.8796 107.632L20.1332 102.443L18.3203 99.5687L16.3404 100.547C10.2336 103.576 8.50415 102.885 7.56189 100.761L9.30327 99.7238C9.68495 100.547 10.6391 101.346 16.8652 98.042L18.9286 96.9447L22.8407 103.147ZM5.06909 89.2039L6.61964 93.8198L4.80669 94.4281L2.60015 87.8681L13.6567 84.1348L15.8156 90.5279L14.0026 91.1361L12.4998 86.6873L9.75651 87.6176L11.0924 91.6013L9.27942 92.2096L7.93164 88.2259L5.06909 89.2039ZM98.1018 73.114H99.8909V74.9866H98.1018V73.114ZM98.5909 42.771C98.4239 42.6518 98.3523 42.4251 98.4239 42.2343C98.4835 42.0315 98.6743 41.9003 98.8771 41.9003H100.082L100.452 40.7673C100.511 40.5645 100.702 40.4333 100.905 40.4333C101.108 40.4333 101.298 40.5645 101.358 40.7673L101.728 41.9003H102.932C103.135 41.9003 103.326 42.0315 103.386 42.2343C103.445 42.4371 103.386 42.6518 103.207 42.771L102.229 43.4747L102.598 44.6198C102.658 44.8225 102.598 45.0372 102.42 45.1565C102.253 45.2758 102.026 45.2758 101.859 45.1565L100.893 44.4528L99.9148 45.1565C99.8313 45.2161 99.7359 45.2519 99.6285 45.2519C99.5212 45.2519 99.4258 45.2161 99.3423 45.1565C99.1753 45.0372 99.1037 44.8225 99.1634 44.6198L99.5331 43.4747L98.5909 42.771ZM59.04 107.393H62.3439V109.003H56.6665V107.667L57.0243 107.321C58.3721 106.009 60.2208 104.197 60.2208 102.718C60.2208 102.097 59.8868 101.751 59.2786 101.751C58.7418 101.751 58.3602 102.121 58.1932 102.789L58.1455 102.956L56.7023 102.312L56.7261 102.193C56.9766 100.869 58.0143 100.046 59.4455 100.046C61.2108 100.046 62.0218 101.286 62.0218 102.431C62.0099 104.459 60.2804 106.331 59.04 107.393ZM100.833 116.887L106.379 127.145L104.578 128.123L100.642 120.835L99.1991 131.021L97.6128 131.88L92.0666 121.622L93.8676 120.644L97.8156 127.944L99.2468 117.734L100.833 116.887ZM89.4188 36.9386C89.4188 38.513 88.5958 39.9204 87.2122 40.7195L85.8883 41.4948L87.2122 42.2701C88.1903 42.8426 89.2279 43.1289 90.3133 43.1289C93.7245 43.1289 96.5036 40.3498 96.5036 36.9386C96.5036 33.5274 93.7245 30.7483 90.3133 30.7483C89.2399 30.7483 88.1903 31.0346 87.2242 31.6071L85.8883 32.3824L87.2242 33.1577C88.5958 33.9449 89.4188 35.3642 89.4188 36.9386ZM90.3133 32.5374C92.7465 32.5374 94.7145 34.5054 94.7145 36.9386C94.7145 39.3598 92.7346 41.3398 90.3133 41.3398C90.0151 41.3398 89.7289 41.304 89.4426 41.2444C90.5638 40.1113 91.2079 38.5846 91.2079 36.9386C91.2079 35.3165 90.5519 33.7779 89.4307 32.6329C89.7289 32.5732 90.0151 32.5374 90.3133 32.5374Z" fill="#1E1E1E"/>
</svg>
