<svg width="32" height="32" viewBox="0 0 22 30" fill="none" xmlns="http://www.w3.org/2000/svg">
<path d="M22 10.9509C22 4.9036 17.0728 0 11.0036 0C4.9272 0 0 4.9036 0 10.9509C0 20.3221 11.0036 29.7647 11.0036 29.7647C11.0036 29.7647 22 20.3149 22 10.9509Z" fill="#757575"/>
<path d="M11.0035 1.57973C5.80341 1.57973 1.58728 5.77566 1.58728 10.9509C1.58728 16.1261 5.80341 20.3221 11.0035 20.3221C16.2037 20.3221 20.4198 16.1261 20.4198 10.9509C20.4198 5.77566 16.2037 1.57973 11.0035 1.57973ZM11.0035 19.2856C6.37801 19.2856 2.62156 15.5543 2.62156 10.9437C2.62156 6.34036 6.37083 2.60191 11.0035 2.60191C15.6291 2.60191 19.3855 6.33322 19.3855 10.9437C19.3783 15.5543 15.6291 19.2856 11.0035 19.2856Z" fill="white"/>
<path d="M11.0036 3.40964C6.82335 3.40964 3.42603 6.79069 3.42603 10.9509C3.42603 15.1039 6.82335 18.485 10.9964 18.485C15.1694 18.485 18.5667 15.1039 18.5667 10.9509C18.5739 6.79069 15.1766 3.40964 11.0036 3.40964ZM18.0496 10.7865H12.9644C12.9357 10.4148 12.7992 10.0717 12.5909 9.78575L16.1965 6.1974C17.317 7.41972 18.0065 9.0209 18.0496 10.7865ZM12.2318 9.41405C11.9588 9.19245 11.6213 9.04949 11.255 8.99946V3.93145C13.0218 3.99578 14.6235 4.70344 15.823 5.83284L12.2318 9.41405ZM10.745 8.99946C10.3931 9.04949 10.0698 9.18531 9.80409 9.3926L6.19847 5.8114C7.39795 4.6963 8.98528 3.99578 10.7378 3.93145V8.99946H10.745ZM9.4306 9.75715C9.20794 10.0502 9.06429 10.4005 9.03556 10.7865H3.95035C3.99344 9.0066 4.69733 7.39113 5.83216 6.17595L9.4306 9.75715ZM9.06429 11.3011C9.12175 11.63 9.2654 11.923 9.46651 12.1732L5.86808 15.7544C4.75479 14.575 4.04372 13.0238 3.95753 11.3011H9.06429ZM9.83282 12.5306C10.0914 12.7236 10.4002 12.8523 10.7378 12.8952V17.9632C8.99965 17.8988 7.42668 17.2126 6.2272 16.119L9.83282 12.5306ZM11.2621 12.8952C11.6141 12.8451 11.9301 12.7093 12.1959 12.5092L15.7943 16.0904C14.5948 17.1983 13.0075 17.8988 11.255 17.9632V12.8952H11.2621ZM11.0036 12.3948C10.1991 12.3948 9.54552 11.7443 9.54552 10.9437C9.54552 10.1432 10.1991 9.49267 11.0036 9.49267C11.808 9.49267 12.4616 10.1432 12.4616 10.9437C12.4544 11.7443 11.8008 12.3948 11.0036 12.3948ZM16.1606 15.7258L12.5622 12.1446C12.7489 11.9016 12.8854 11.6157 12.9357 11.3011H18.0424C17.9562 13.0095 17.2595 14.5535 16.1606 15.7258Z" fill="white"/>
</svg>
