<?xml version="1.0" encoding="utf-8"?>
<!-- Generator: Adobe Illustrator 23.0.0, SVG Export Plug-In . SVG Version: 6.00 Build 0)  -->
<svg width="32" height="32" version="1.1" id="Слой_1" xmlns="http://www.w3.org/2000/svg" xmlns:xlink="http://www.w3.org/1999/xlink" x="0px" y="0px"
	 viewBox="0 0 23.12 31.18" style="enable-background:new 0 0 23.12 31.18;" xml:space="preserve">
<style type="text/css">
	.st0{fill:#201600;}
	.st1{fill:none;stroke:#FFFFFF;stroke-width:0.8;}
	.st2{fill:#FFFFFF;}
	.st3{fill-rule:evenodd;clip-rule:evenodd;fill:#201600;}
	.st4{fill-rule:evenodd;clip-rule:evenodd;fill:#FFFFFF;}
</style>
<g>
	<path class="st0" d="M23.06,11.5c0-6.3-5.15-11.41-11.49-11.41c-6.35,0-11.51,5.1-11.51,11.41c0,9.76,11.51,19.6,11.51,19.6
		S23.06,21.25,23.06,11.5z"/>
	<path class="st1" d="M11.56,21.09c5.25,0,9.5-4.25,9.5-9.5s-4.25-9.5-9.5-9.5s-9.5,4.25-9.5,9.5S6.31,21.09,11.56,21.09z"/>
	<path class="st2" d="M11.56,20.9c5.19,0,9.4-4.19,9.4-9.36s-4.21-9.36-9.4-9.36c-5.19,0-9.4,4.19-9.4,9.36S6.37,20.9,11.56,20.9z"
		/>
	<g>
		<path class="st3" d="M11.51,10.61c0.54,0,0.98,0.43,0.98,0.96c0,0.53-0.44,0.96-0.98,0.96c-0.54,0-0.98-0.43-0.98-0.96
			C10.53,11.04,10.97,10.61,11.51,10.61z"/>
		<path class="st3" d="M6.78,6.73l0.57,1.59v0.56c0,0.46,0.5,0.24,0.5,0.69c0,0.19-0.15,0.35-0.35,0.35H6.41
			c-0.16,0-0.35-0.13-0.35-0.35c0.09-0.56,0.48-0.3,0.63-0.88V6.74C6.7,6.65,6.76,6.66,6.78,6.73z M9.14,5.82L8.97,6.24
			c0,0-0.17-0.4-0.18-0.75C8.78,5.01,8.29,5.09,7.6,5.12C6.91,5.15,6.3,4.91,6.22,5.49C6.21,5.86,6.49,5.92,6.55,5.92
			c0.22,0,0.86,2.11,1.57,4h0.4l0.63-1.6V5.82z M11.51,6.09v3.14h0.11c0.17,0,0.32,0.19,0.32,0.37c0,0.18-0.14,0.33-0.32,0.33H9.16
			c-0.17,0-0.32-0.15-0.32-0.33c0-0.18,0.14-0.37,0.32-0.37h0.13V5.8c0-0.18-0.15-0.1-0.15-0.39c0-0.18,0.14-0.32,0.32-0.32h2.24
			c0.17,0,0.32,0.15,0.32,0.32C12,5.88,11.51,5.8,11.51,6.09z"/>
		<path class="st3" d="M13.19,8.28c0.42,0,0.77,0.24,0.87,0.58c0.05-0.01,0.06-0.03,0.06-0.03l0.32,0.57c0,0,0.02,0.15-0.6,0.46
			c-0.57,0.28-1.57,0.08-1.57-0.76C12.27,8.65,12.68,8.28,13.19,8.28z M14.39,5.88c0,0-0.06-0.05-0.03-0.08
			c0.02-0.03,0.29-0.07,0.28-0.39c-0.02-0.32-0.3-0.31-0.34-0.31c-0.05,0-0.85,0.05-1.07,0.04C13,5.13,12.53,5.07,12.16,5.1
			C11.78,5.13,11.74,5.59,12,5.65c0.25,0.06,0.36,0.25,0.36,0.25l2.25,3.4l0.93-1.67L14.39,5.88z M15.65,7.53l-0.47-0.7l0.42-0.75
			c0,0,0.09-0.17-0.06-0.24c-0.1-0.05-0.42-0.12-0.42-0.36c-0.01-0.19,0.11-0.3,0.29-0.3c0.33-0.01,0.43,0.01,0.66,0.01
			c0.23,0,0.7-0.02,0.79,0c0.09,0.01,0.21,0.07,0.22,0.28c0.01,0.21-0.13,0.33-0.26,0.34c-0.12,0.02-0.19-0.05-0.38,0.25
			C16.25,6.37,15.65,7.53,15.65,7.53z"/>
		<path class="st3" d="M6.9,14.84l0.57,1.59v0.56c0.01,0.46,0.5,0.24,0.5,0.69c0,0.19-0.15,0.35-0.35,0.35H6.53
			c-0.16,0-0.35-0.13-0.35-0.35c0.09-0.56,0.48-0.31,0.63-0.89v-1.96C6.82,14.76,6.87,14.77,6.9,14.84z M9.26,13.94l-0.17,0.41
			c0,0-0.17-0.4-0.18-0.75c-0.01-0.49-0.5-0.41-1.19-0.37c-0.69,0.03-1.3-0.21-1.38,0.37c-0.01,0.37,0.27,0.43,0.33,0.43
			c0.22,0,0.86,2.11,1.57,4.01h0.4l0.63-1.6V13.94z M11.63,14.2v3.14h0.11c0.17,0,0.32,0.19,0.32,0.37s-0.14,0.33-0.32,0.33H9.28
			c-0.17,0-0.32-0.15-0.32-0.33s0.14-0.37,0.32-0.37h0.13v-3.42c0-0.18-0.15-0.1-0.15-0.39c0-0.18,0.14-0.33,0.32-0.33h2.24
			c0.17,0,0.32,0.15,0.32,0.33C12.12,13.99,11.62,13.91,11.63,14.2z"/>
		<path class="st3" d="M13.31,16.4c0.42,0,0.77,0.24,0.87,0.58c0.05-0.01,0.06-0.03,0.06-0.03l0.32,0.57c0,0,0.02,0.15-0.6,0.46
			c-0.57,0.28-1.57,0.08-1.57-0.76C12.4,16.76,12.8,16.4,13.31,16.4z M14.51,13.99c0,0-0.06-0.05-0.03-0.07
			c0.02-0.03,0.29-0.07,0.28-0.39s-0.3-0.31-0.34-0.31c-0.05,0-0.85,0.05-1.07,0.04c-0.22-0.01-0.69-0.07-1.06-0.03
			c-0.38,0.02-0.42,0.49-0.16,0.54c0.25,0.07,0.36,0.25,0.36,0.25l2.25,3.4l0.93-1.67L14.51,13.99z M15.77,15.65l-0.47-0.7
			l0.42-0.75c0,0,0.09-0.17-0.06-0.24c-0.1-0.05-0.42-0.12-0.42-0.36c-0.01-0.19,0.11-0.3,0.29-0.3c0.33-0.01,0.43,0.01,0.66,0.01
			c0.23,0,0.7-0.02,0.79,0c0.09,0.01,0.21,0.07,0.22,0.28c0.01,0.21-0.13,0.33-0.26,0.34c-0.12,0.02-0.19-0.05-0.38,0.25
			C16.37,14.48,15.77,15.65,15.77,15.65z"/>
	</g>
	<path class="st4" d="M11.29,10.99c0.2,0,0.37,0.17,0.37,0.37c0,0.21-0.16,0.37-0.37,0.37c-0.2,0-0.37-0.17-0.37-0.37
		C10.92,11.17,11.08,10.99,11.29,10.99z"/>
	<path class="st4" d="M9.55,9.43c0.23,0,0.42,0.09,0.42,0.21c0,0.11-0.19,0.21-0.42,0.21c-0.23,0-0.42-0.09-0.42-0.21
		C9.13,9.53,9.32,9.43,9.55,9.43z"/>
	<path class="st4" d="M13.07,8.64c0.2,0,0.35,0.13,0.35,0.28s-0.15,0.28-0.35,0.28s-0.35-0.13-0.35-0.28S12.89,8.64,13.07,8.64z"/>
	<path class="st4" d="M6.89,5.5c0,0-0.14,0.01-0.13,0.16c0,0.15,0.11,0.13,0.15,0.15C6.96,5.84,7.04,5.81,7.09,6
		c0.06,0.19,0.29,0.85,0.37,0.86C7.53,6.87,7.59,6.84,7.6,6.79c0.01-0.06,0.11-0.95,0.11-0.95c0.02-0.11,0.18-0.02,0.21-0.19
		C7.93,5.6,7.89,5.51,7.77,5.51C7.66,5.52,6.89,5.5,6.89,5.5z"/>
	<path class="st4" d="M10.59,5.51c0,0,0.14,0.02,0.12,0.18c-0.02,0.15-0.12,0.12-0.17,0.15c-0.05,0.02-0.12-0.02-0.2,0.16
		C10.28,6.18,9.97,6.86,9.9,6.86S9.78,6.83,9.77,6.77C9.76,6.71,9.74,5.84,9.74,5.84c-0.02-0.11-0.18-0.04-0.2-0.2
		C9.54,5.58,9.59,5.5,9.7,5.51C9.82,5.52,10.59,5.51,10.59,5.51z"/>
	<path class="st4" d="M12.75,5.5c0,0-0.12,0.02-0.11,0.16c0.01,0.15,0.13,0.12,0.17,0.16c0.45,0.46,0.52,0.91,0.72,1.03
		c0.06,0.03,0.11-0.02,0.11-0.07c0.01-0.06-0.21-0.95-0.21-0.95c0.02-0.11,0.15-0.02,0.18-0.19c0.01-0.05-0.02-0.14-0.12-0.14
		C13.38,5.52,12.75,5.5,12.75,5.5z"/>
	<path class="st4" d="M15.96,5.5c-0.34-0.01-0.41,0.02-0.4,0.15c0.01,0.15,0.14,0.14,0.2,0.18c0.07,0.04,0.04,0.15,0.07,0.2
		c0.03,0.04,0.09,0.05,0.12,0.02c0.08-0.07,0.24-0.17,0.27-0.28C16.27,5.62,16.25,5.5,15.96,5.5z"/>
	<path class="st4" d="M6.83,17.53c0.22,0,0.39,0.1,0.39,0.22c0,0.12-0.17,0.22-0.39,0.22c-0.22,0-0.39-0.1-0.39-0.22
		C6.44,17.63,6.61,17.53,6.83,17.53z"/>
	<path class="st4" d="M9.67,17.54c0.23,0,0.42,0.1,0.42,0.21c0,0.11-0.19,0.21-0.42,0.21c-0.23,0-0.42-0.09-0.42-0.21
		C9.26,17.64,9.44,17.54,9.67,17.54z"/>
	<path class="st4" d="M13.2,16.76c0.2,0,0.35,0.13,0.35,0.28s-0.15,0.28-0.35,0.28c-0.2,0-0.35-0.13-0.35-0.28
		C12.84,16.88,13,16.76,13.2,16.76z"/>
	<path class="st4" d="M7.01,13.61c0,0-0.14,0.01-0.13,0.16c0,0.15,0.11,0.13,0.15,0.15c0.05,0.02,0.13-0.01,0.18,0.18
		c0.06,0.19,0.29,0.85,0.37,0.86c0.07,0.01,0.13-0.02,0.14-0.07c0.01-0.06,0.11-0.95,0.11-0.95c0.02-0.11,0.18-0.02,0.21-0.19
		c0.01-0.05-0.02-0.14-0.15-0.14C7.77,13.63,7.01,13.61,7.01,13.61z"/>
	<path class="st4" d="M10.7,13.62c0,0,0.14,0.02,0.12,0.18c-0.02,0.15-0.12,0.12-0.17,0.15c-0.05,0.02-0.12-0.02-0.2,0.16
		c-0.07,0.18-0.37,0.86-0.44,0.86s-0.12-0.03-0.13-0.09c-0.01-0.06-0.02-0.93-0.02-0.93c-0.02-0.11-0.18-0.04-0.2-0.2
		c-0.01-0.05,0.04-0.14,0.15-0.12C9.93,13.64,10.7,13.62,10.7,13.62z"/>
	<path class="st4" d="M12.87,13.61c0,0-0.12,0.02-0.11,0.16c0.01,0.15,0.13,0.12,0.17,0.16c0.45,0.46,0.52,0.91,0.72,1.03
		c0.06,0.03,0.11-0.02,0.11-0.07c0.01-0.06-0.21-0.95-0.21-0.95c0.02-0.11,0.15-0.02,0.17-0.19c0.01-0.05-0.02-0.14-0.12-0.14
		C13.51,13.63,12.87,13.61,12.87,13.61z"/>
	<path class="st4" d="M16.07,13.61c-0.34-0.01-0.41,0.02-0.4,0.15c0.01,0.15,0.14,0.14,0.2,0.18c0.06,0.04,0.04,0.15,0.07,0.2
		c0.03,0.04,0.09,0.05,0.12,0.02c0.08-0.07,0.24-0.17,0.27-0.28C16.38,13.73,16.36,13.62,16.07,13.61z"/>
	<path class="st4" d="M6.69,9.45c0.22,0,0.39,0.1,0.39,0.22c0,0.12-0.18,0.22-0.39,0.22c-0.22,0-0.39-0.1-0.39-0.22
		C6.3,9.55,6.48,9.45,6.69,9.45z"/>
</g>
</svg>
