<svg width="32" height="32" id="Слой_1" data-name="Слой 1" xmlns="http://www.w3.org/2000/svg" viewBox="0 0 23.12 31.18"><defs><style>.cls-1,.cls-4{fill:red;}.cls-2{fill:none;stroke:#fff;stroke-width:0.8px;}.cls-3,.cls-5{fill:#fff;}.cls-4,.cls-5{fill-rule:evenodd;}</style></defs><title>mymy_check</title><path class="cls-1" d="M23.06,11.5a11.5,11.5,0,0,0-23,0c0,9.76,11.5,19.59,11.5,19.59S23.06,21.25,23.06,11.5Z"/><path class="cls-2" d="M11.56,21.09a9.5,9.5,0,1,0-9.5-9.5A9.51,9.51,0,0,0,11.56,21.09Z"/><path class="cls-3" d="M11.56,20.9a9.37,9.37,0,1,0-9.4-9.36A9.38,9.38,0,0,0,11.56,20.9Z"/><path class="cls-4" d="M11.51,10.61a1,1,0,1,1-1,1A1,1,0,0,1,11.51,10.61Z"/><path class="cls-4" d="M6.78,6.73l.57,1.59v.56c0,.47.49.25.49.69a.35.35,0,0,1-.35.35H6.41a.35.35,0,0,1-.35-.35c.09-.56.48-.3.63-.87v-2C6.7,6.65,6.76,6.66,6.78,6.73Zm2.36-.91L9,6.24a2.47,2.47,0,0,1-.18-.75c0-.48-.5-.4-1.19-.37s-1.3-.21-1.38.37a.37.37,0,0,0,.33.43c.22,0,.86,2.12,1.56,4h.4l.63-1.6Zm2.37.27V9.22h.1a.38.38,0,0,1,.32.38.32.32,0,0,1-.32.32H9.16a.32.32,0,0,1-.32-.32.37.37,0,0,1,.32-.38h.13V5.8c0-.18-.16-.09-.16-.39a.32.32,0,0,1,.32-.32h2.24a.31.31,0,0,1,.31.32C12,5.88,11.51,5.8,11.51,6.09Z"/><path class="cls-4" d="M13.19,8.28a.89.89,0,0,1,.87.58s.06,0,.06,0l.32.56s0,.15-.6.46-1.57.08-1.57-.76A.87.87,0,0,1,13.19,8.28Zm1.2-2.4s-.06,0,0-.09a.38.38,0,0,0,.28-.39.31.31,0,0,0-.34-.3l-1.07,0a8.14,8.14,0,0,0-1.06,0c-.38,0-.42.49-.16.55a.6.6,0,0,1,.36.25l2.25,3.4.93-1.66Zm1.26,1.65-.47-.7.41-.74s.09-.17-.05-.25-.42-.12-.43-.35a.26.26,0,0,1,.29-.3c.32,0,.43,0,.66,0s.7,0,.79,0,.21.07.22.28a.31.31,0,0,1-.26.34c-.12,0-.19,0-.38.25S15.65,7.53,15.65,7.53Z"/><path class="cls-4" d="M6.9,14.84l.57,1.59V17c0,.46.5.25.5.69a.35.35,0,0,1-.35.35H6.53a.35.35,0,0,1-.35-.35c.09-.56.48-.31.63-.88v-2C6.82,14.76,6.87,14.77,6.9,14.84Zm2.36-.9-.18.41a2.47,2.47,0,0,1-.18-.75c0-.48-.49-.4-1.19-.37S6.42,13,6.34,13.6c0,.37.26.43.32.43.22,0,.87,2.12,1.57,4h.4l.63-1.6Zm2.37.26v3.13h.11c.17,0,.31.2.31.38a.31.31,0,0,1-.31.32H9.28A.32.32,0,0,1,9,17.71a.37.37,0,0,1,.32-.38h.13V13.91c0-.18-.15-.1-.15-.39a.31.31,0,0,1,.31-.32h2.24a.32.32,0,0,1,.32.32C12.12,14,11.62,13.91,11.63,14.2Z"/><path class="cls-4" d="M13.31,16.4a.88.88,0,0,1,.87.58c.05,0,.06,0,.06,0l.32.57s0,.15-.6.46-1.56.08-1.56-.77A.86.86,0,0,1,13.31,16.4ZM14.51,14s-.06-.05,0-.08a.38.38,0,0,0,.27-.39.31.31,0,0,0-.34-.31c-.05,0-.85,0-1.07,0s-.68-.06-1.06,0-.41.49-.16.55a.6.6,0,0,1,.36.25l2.25,3.4.93-1.66Zm1.26,1.66L15.3,15l.42-.75s.09-.17-.06-.24-.42-.12-.43-.36a.27.27,0,0,1,.29-.3c.33,0,.43,0,.66,0s.7,0,.79,0,.21.07.22.28a.31.31,0,0,1-.26.34c-.12,0-.19,0-.37.25S15.77,15.65,15.77,15.65Z"/><path class="cls-5" d="M11.29,11a.38.38,0,0,1,.36.38.36.36,0,0,1-.36.37.37.37,0,0,1-.37-.37A.38.38,0,0,1,11.29,11Z"/><path class="cls-5" d="M9.55,9.43c.23,0,.42.09.42.22s-.19.21-.42.21-.42-.09-.42-.21S9.32,9.43,9.55,9.43Z"/><path class="cls-5" d="M13.07,8.64a.29.29,0,1,1,0,.57.33.33,0,0,1-.35-.29A.33.33,0,0,1,13.07,8.64Z"/><path class="cls-5" d="M6.89,5.5a.14.14,0,0,0-.13.16c0,.16.11.13.15.16s.13,0,.18.18a3.78,3.78,0,0,0,.37.86c.07,0,.13,0,.14-.07s.11-1,.11-1,.18,0,.21-.19,0-.14-.15-.14S6.89,5.5,6.89,5.5Z"/><path class="cls-5" d="M10.59,5.51a.16.16,0,0,1,.12.18c0,.15-.12.12-.17.15s-.13,0-.2.16a3.39,3.39,0,0,1-.44.86c-.07,0-.12,0-.13-.09s0-.93,0-.93-.17,0-.19-.21,0-.13.15-.12Z"/><path class="cls-5" d="M12.75,5.5a.14.14,0,0,0-.12.16c0,.15.13.13.17.17.45.46.53.91.72,1a.09.09,0,0,0,.12-.07c0-.06-.22-1-.22-1s.15,0,.18-.19a.12.12,0,0,0-.12-.14C13.38,5.52,12.75,5.5,12.75,5.5Z"/><path class="cls-5" d="M16,5.5c-.34,0-.41,0-.4.16s.14.13.2.18.05.14.08.19a.08.08,0,0,0,.12,0c.08-.08.24-.17.27-.29S16.25,5.5,16,5.5Z"/><path class="cls-5" d="M6.83,17.53c.22,0,.39.1.39.22s-.17.22-.39.22-.39-.1-.39-.22S6.61,17.53,6.83,17.53Z"/><path class="cls-5" d="M9.67,17.54c.23,0,.42.1.42.22S9.9,18,9.67,18s-.41-.09-.41-.21S9.44,17.54,9.67,17.54Z"/><path class="cls-5" d="M13.2,16.76a.29.29,0,1,1,0,.56.33.33,0,0,1-.36-.28A.32.32,0,0,1,13.2,16.76Z"/><path class="cls-5" d="M7,13.61a.14.14,0,0,0-.13.16c0,.16.12.13.16.16s.13,0,.18.18a3.41,3.41,0,0,0,.36.86c.08,0,.13,0,.14-.07s.11-1,.11-1,.18,0,.21-.18,0-.14-.15-.14S7,13.61,7,13.61Z"/><path class="cls-5" d="M10.7,13.62a.15.15,0,0,1,.12.18c0,.15-.12.12-.17.14s-.12,0-.2.17A3.09,3.09,0,0,1,10,15c-.07,0-.12,0-.13-.09s0-.94,0-.94-.18,0-.2-.2a.13.13,0,0,1,.16-.12C9.93,13.64,10.7,13.62,10.7,13.62Z"/><path class="cls-5" d="M12.87,13.61a.15.15,0,0,0-.12.16c0,.15.14.13.18.17.44.46.52.91.71,1a.09.09,0,0,0,.12-.07c0-.06-.21-1-.21-1s.14,0,.17-.18a.12.12,0,0,0-.12-.14C13.51,13.63,12.87,13.61,12.87,13.61Z"/><path class="cls-5" d="M16.07,13.61c-.34,0-.4,0-.39.16s.13.13.2.17,0,.15.07.2a.08.08,0,0,0,.12,0c.09-.08.24-.17.27-.29S16.36,13.62,16.07,13.61Z"/><path class="cls-5" d="M6.69,9.45c.22,0,.4.1.4.22s-.18.22-.4.22-.39-.1-.39-.22S6.48,9.45,6.69,9.45Z"/></svg>