<svg width="32" height="32" viewBox="0 0 32 32" fill="none" xmlns="http://www.w3.org/2000/svg">
<path d="M27 11.9509C27 5.9036 22.0728 1 16.0036 1C9.9272 1 5 5.9036 5 11.9509C5 21.3221 16.0036 30.7647 16.0036 30.7647C16.0036 30.7647 27 21.3149 27 11.9509Z" fill="#EE3C36"/>
<path d="M16.0036 2.57973C10.8034 2.57973 6.58731 6.77567 6.58731 11.9509C6.58731 17.1261 10.8034 21.3221 16.0036 21.3221C21.2037 21.3221 25.4198 17.1261 25.4198 11.9509C25.4198 6.77567 21.2037 2.57973 16.0036 2.57973ZM16.0036 20.2856C11.378 20.2856 7.62159 16.5543 7.62159 11.9438C7.62159 7.34037 11.3709 3.60191 16.0036 3.60191C20.6291 3.60191 24.3855 7.33322 24.3855 11.9438C24.3784 16.5543 20.6291 20.2856 16.0036 20.2856Z" fill="white"/>
<path d="M16.0036 4.40964C11.8234 4.40964 8.42606 7.79069 8.42606 11.9509C8.42606 16.1039 11.8234 19.485 15.9964 19.485C20.1694 19.485 23.5668 16.1039 23.5668 11.9509C23.574 7.79069 20.1766 4.40964 16.0036 4.40964ZM23.0496 11.7865H17.9644C17.9357 11.4148 17.7992 11.0717 17.5909 10.7857L21.1965 7.1974C22.317 8.41972 23.0065 10.0209 23.0496 11.7865ZM17.2318 10.414C16.9589 10.1925 16.6213 10.0495 16.255 9.99946V4.93145C18.0219 4.99578 19.6236 5.70344 20.8231 6.83284L17.2318 10.414ZM15.745 9.99946C15.3931 10.0495 15.0699 10.1853 14.8041 10.3926L11.1985 6.8114C12.398 5.6963 13.9853 4.99578 15.7378 4.93145V9.99946H15.745ZM14.4306 10.7572C14.208 11.0502 14.0643 11.4005 14.0356 11.7865H8.95038C8.99347 10.0066 9.69736 8.39113 10.8322 7.17595L14.4306 10.7572ZM14.0643 12.3011C14.1218 12.63 14.2654 12.923 14.4665 13.1732L10.8681 16.7544C9.75482 15.575 9.04375 14.0238 8.95756 12.3011H14.0643ZM14.8328 13.5306C15.0914 13.7236 15.4003 13.8523 15.7378 13.8952V18.9632C13.9997 18.8988 12.4267 18.2126 11.2272 17.119L14.8328 13.5306ZM16.2622 13.8952C16.6141 13.8451 16.9301 13.7093 17.1959 13.5092L20.7943 17.0904C19.5948 18.1983 18.0075 18.8988 16.255 18.9632V13.8952H16.2622ZM16.0036 13.3948C15.1992 13.3948 14.5455 12.7443 14.5455 11.9437C14.5455 11.1432 15.1992 10.4927 16.0036 10.4927C16.808 10.4927 17.4616 11.1432 17.4616 11.9437C17.4545 12.7443 16.8009 13.3948 16.0036 13.3948ZM21.1606 16.7258L17.5622 13.1446C17.7489 12.9016 17.8854 12.6157 17.9357 12.3011H23.0424C22.9563 14.0095 22.2596 15.5535 21.1606 16.7258Z" fill="white"/>
</svg>
