<?xml version="1.0" encoding="utf-8"?>
<!-- Generator: Adobe Illustrator 23.0.0, SVG Export Plug-In . SVG Version: 6.00 Build 0)  -->
<svg width="32" height="32" version="1.1" id="Слой_1" xmlns="http://www.w3.org/2000/svg" xmlns:xlink="http://www.w3.org/1999/xlink" x="0px" y="0px"
	 viewBox="0 0 23.12 31.18" style="enable-background:new 0 0 23.12 31.18;" xml:space="preserve">
<style type="text/css">
	.st0{fill:#201600;}
	.st1{fill:#FFFFFF;}
</style>
<g>
	<path class="st0" d="M23.06,11.5c0-6.3-5.15-11.41-11.49-11.41c-6.35,0-11.51,5.1-11.51,11.41c0,9.76,11.51,19.6,11.51,19.6
		S23.06,21.25,23.06,11.5z"/>
	<path class="st0" d="M11.56,23.09c6.35,0,11.5-5.15,11.5-11.5c0-6.35-5.15-11.5-11.5-11.5s-11.5,5.15-11.5,11.5
		C0.06,17.94,5.21,23.09,11.56,23.09z"/>
	<path class="st1" d="M15.45,11.53c0-2.77-1.49-4.33-4.25-4.33H9.71v8.7h1.51C14.1,15.9,15.45,14.56,15.45,11.53z M5.95,19.28V3.89
		h5.25c2.44,0,4.14,0.32,5.74,1.84c1.47,1.38,2.24,3.4,2.24,5.93c0,2.34-0.76,4.26-2.23,5.71c-1.64,1.6-3.09,1.9-5.25,1.9
		L5.95,19.28L5.95,19.28z"/>
</g>
</svg>
